<?xml version="1.0" encoding="UTF-8" standalone="no"?>
<!DOCTYPE svg PUBLIC "-//W3C//DTD SVG 1.1//EN" "http://www.w3.org/Graphics/SVG/1.1/DTD/svg11.dtd">
<svg width="100%" height="100%" viewBox="0 0 782 672" version="1.1" xmlns="http://www.w3.org/2000/svg" xmlns:xlink="http://www.w3.org/1999/xlink" xml:space="preserve" xmlns:serif="http://www.serif.com/" style="fill-rule:evenodd;clip-rule:evenodd;stroke-linejoin:round;stroke-miterlimit:2;">
    <g transform="matrix(0.1,0,0,-0.1,0,672)">
        <path d="M1940,6714C1797,6696 1627,6642 1495,6573C1132,6381 884,6045 830,5672C814,5567 823,5298 844,5220C899,5015 961,4875 1055,4748L1111,4671L1068,4613C989,4506 882,4343 808,4215C798,4199 760,4124 724,4050C543,3682 433,3318 370,2885C352,2758 350,2709 366,2703C374,2700 424,2711 478,2728C731,2806 854,2841 1065,2894C1235,2936 1390,2972 1611,3020C1739,3048 1953,3086 2120,3110C2194,3121 2298,3137 2350,3145C2470,3164 2886,3207 3135,3225C3550,3256 4305,3254 4645,3220C4695,3215 4807,3204 4895,3195C5116,3174 5263,3155 5485,3121C5758,3079 6308,2981 6358,2966C6368,2963 6434,2949 6505,2936C6686,2901 6885,2856 7015,2822C7076,2805 7170,2780 7225,2765C7280,2750 7356,2727 7393,2714C7489,2680 7500,2681 7500,2728C7500,2853 7449,3153 7394,3358C7259,3860 7068,4269 6830,4563C6736,4680 6739,4667 6798,4746C6895,4875 6980,5064 7016,5230C7041,5346 7041,5609 7017,5732C6937,6131 6648,6463 6230,6635C5931,6758 5559,6728 5252,6557C5028,6431 4834,6236 4694,5994C4662,5939 4636,5894 4635,5892C4634,5891 4561,5901 4474,5914C4387,5928 4263,5944 4200,5950C3945,5972 3495,5955 3328,5915C3250,5897 3230,5896 3230,5913C3230,5920 3190,5987 3141,6061C2934,6376 2713,6550 2376,6664C2273,6699 2037,6726 1940,6714ZM2137,6230C2232,6218 2359,6176 2434,6132C2527,6078 2657,5941 2707,5845C2780,5703 2795,5638 2794,5460C2794,5315 2792,5301 2766,5235C2675,5006 2514,4844 2309,4775C2240,4752 2202,4746 2099,4742C1950,4737 1865,4749 1760,4792C1662,4833 1590,4882 1508,4966C1424,5052 1393,5096 1353,5185C1294,5315 1277,5472 1305,5628C1350,5883 1572,6132 1815,6200C1947,6237 2025,6245 2137,6230ZM6008,6205C6166,6167 6270,6106 6382,5987C6653,5697 6628,5214 6328,4935C6255,4867 6226,4846 6149,4806C6046,4752 5973,4736 5830,4736C5681,4735 5626,4747 5502,4807C5427,4842 5391,4868 5324,4932C5191,5060 5121,5190 5093,5363C5041,5675 5187,5967 5480,6140C5527,6168 5619,6200 5710,6220C5784,6236 5903,6230 6008,6205Z" style="fill:rgb(33,138,50);fill-rule:nonzero;"/>
        <path d="M5728,5850C5541,5791 5428,5631 5443,5446C5454,5316 5528,5204 5644,5139C5696,5110 5715,5105 5792,5102C5898,5097 5956,5110 6033,5157C6228,5275 6273,5538 6130,5718C6081,5781 6013,5825 5929,5850C5849,5874 5804,5874 5728,5850Z" style="fill:rgb(33,138,50);fill-rule:nonzero;"/>
        <g transform="matrix(1,0,0,1,-3780,0)">
            <path d="M5728,5850C5541,5791 5428,5631 5443,5446C5454,5316 5528,5204 5644,5139C5696,5110 5715,5105 5792,5102C5898,5097 5956,5110 6033,5157C6228,5275 6273,5538 6130,5718C6081,5781 6013,5825 5929,5850C5849,5874 5804,5874 5728,5850Z" style="fill:rgb(33,138,50);fill-rule:nonzero;"/>
        </g>
        <path d="M3460,2894C3430,2892 3317,2886 3210,2880C3103,2874 2977,2865 2930,2859C2883,2854 2737,2839 2605,2825C2473,2811 2345,2796 2320,2790C2295,2785 2232,2776 2180,2769C2084,2758 2053,2753 1765,2700C1226,2601 485,2399 280,2295C216,2262 130,2183 84,2115C19,2017 16,1993 12,1520C8,1084 13,1005 48,915C100,784 233,653 386,585C492,537 764,451 1050,375C1124,356 1219,331 1260,320C1301,309 1369,293 1410,285C1451,277 1512,263 1545,255C1578,247 1657,232 1720,221C1783,209 1885,192 1945,181C2342,110 2815,56 3275,28C3560,11 4242,11 4530,29C5182,68 5939,168 6430,279C6719,345 6826,370 6850,379C6864,385 6911,399 6955,410C7042,434 7113,455 7260,502C7471,569 7661,686 7744,798C7813,892 7813,898 7817,1439C7820,1907 7820,1926 7799,2009C7753,2191 7656,2272 7375,2360C7124,2439 7044,2460 6665,2549C6479,2592 6108,2663 5854,2705C5771,2718 5683,2734 5659,2739C5635,2744 5550,2758 5470,2769C5390,2780 5300,2794 5270,2800C5240,2805 5138,2819 5043,2829C4949,2840 4861,2852 4848,2855C4836,2858 4733,2867 4620,2876C4429,2890 3602,2903 3460,2894ZM4420,1400C4494,1394 4652,1383 4770,1374C4888,1365 5012,1355 5045,1350C5300,1314 5409,1298 5500,1281C5558,1270 5637,1257 5675,1251C5770,1235 5976,1194 6080,1169C6288,1118 6458,1078 6495,1070C6517,1065 6570,1050 6613,1036C6656,1022 6733,1003 6783,994C6874,977 7025,928 7025,915C7025,903 6899,861 6781,835C6718,821 6663,807 6658,804C6648,798 6485,763 6260,720C6175,703 6099,687 6091,684C6067,676 5724,620 5570,600C5490,589 5378,574 5320,565C5262,557 5121,541 5005,530C4890,519 4750,506 4695,501C4299,462 3409,467 3020,510C2968,516 2837,530 2730,541C2515,563 2204,605 1980,644C1753,682 1250,788 1199,808C1185,814 1129,828 1074,839C950,866 839,901 843,913C848,928 972,976 1064,999C1112,1011 1180,1032 1213,1045C1288,1074 1322,1083 1520,1127C1843,1198 1960,1222 2120,1250C2211,1265 2296,1281 2310,1284C2335,1290 2627,1330 2835,1355C2998,1375 3313,1402 3495,1410C3691,1419 4236,1413 4420,1400Z" style="fill:rgb(33,138,50);fill-rule:nonzero;"/>
    </g>
</svg>
